<mxfile host="app.diagrams.net" modified="2023-04-05T13:54:59.857Z" agent="Mozilla/5.0 (X11; Linux x86_64; rv:109.0) Gecko/20100101 Firefox/111.0" etag="fOpBjCFGKGJZr42ExbNw" version="21.1.2" type="github">
  <diagram name="Page-1" id="e7e014a7-5840-1c2e-5031-d8a46d1fe8dd">
    <mxGraphModel dx="1677" dy="1842" grid="1" gridSize="10" guides="1" tooltips="1" connect="1" arrows="1" fold="1" page="1" pageScale="1" pageWidth="1169" pageHeight="826" background="none" math="0" shadow="0">
      <root>
        <mxCell id="0" />
        <mxCell id="1" parent="0" />
        <mxCell id="gKWf8svU3lvWC4O9m-Wb-16" value="" style="group" vertex="1" connectable="0" parent="1">
          <mxGeometry x="900" y="-400" width="910" height="890" as="geometry" />
        </mxCell>
        <mxCell id="gKWf8svU3lvWC4O9m-Wb-1" value="&lt;div&gt;notebook_classes&lt;/div&gt;&lt;div&gt;&lt;br&gt;&lt;/div&gt;" style="shape=module;align=left;spacingLeft=20;align=center;verticalAlign=top;whiteSpace=wrap;html=1;" vertex="1" parent="gKWf8svU3lvWC4O9m-Wb-16">
          <mxGeometry width="910" height="890" as="geometry" />
        </mxCell>
        <mxCell id="VGOBlKjqHN4MHqmhBKWz-45" value="Note" style="swimlane;fontStyle=1;align=center;verticalAlign=top;childLayout=stackLayout;horizontal=1;startSize=26;horizontalStack=0;resizeParent=1;resizeParentMax=0;resizeLast=0;collapsible=1;marginBottom=0;whiteSpace=wrap;html=1;" parent="gKWf8svU3lvWC4O9m-Wb-16" vertex="1">
          <mxGeometry x="720" y="210" width="160" height="104" as="geometry">
            <mxRectangle x="810" y="327" width="70" height="30" as="alternateBounds" />
          </mxGeometry>
        </mxCell>
        <mxCell id="VGOBlKjqHN4MHqmhBKWz-78" value="&lt;div&gt;+ id: int&lt;br&gt;&lt;/div&gt;" style="text;strokeColor=none;fillColor=none;align=left;verticalAlign=top;spacingLeft=4;spacingRight=4;overflow=hidden;rotatable=0;points=[[0,0.5],[1,0.5]];portConstraint=eastwest;whiteSpace=wrap;html=1;" parent="VGOBlKjqHN4MHqmhBKWz-45" vertex="1">
          <mxGeometry y="26" width="160" height="26" as="geometry" />
        </mxCell>
        <mxCell id="VGOBlKjqHN4MHqmhBKWz-70" value="&lt;div&gt;+ title: Title&lt;/div&gt;" style="text;strokeColor=none;fillColor=none;align=left;verticalAlign=top;spacingLeft=4;spacingRight=4;overflow=hidden;rotatable=0;points=[[0,0.5],[1,0.5]];portConstraint=eastwest;whiteSpace=wrap;html=1;" parent="VGOBlKjqHN4MHqmhBKWz-45" vertex="1">
          <mxGeometry y="52" width="160" height="26" as="geometry" />
        </mxCell>
        <mxCell id="VGOBlKjqHN4MHqmhBKWz-71" value="&lt;div&gt;+ content: Content&lt;br&gt;&lt;/div&gt;" style="text;strokeColor=none;fillColor=none;align=left;verticalAlign=top;spacingLeft=4;spacingRight=4;overflow=hidden;rotatable=0;points=[[0,0.5],[1,0.5]];portConstraint=eastwest;whiteSpace=wrap;html=1;" parent="VGOBlKjqHN4MHqmhBKWz-45" vertex="1">
          <mxGeometry y="78" width="160" height="26" as="geometry" />
        </mxCell>
        <mxCell id="VGOBlKjqHN4MHqmhBKWz-49" value="&lt;div&gt;Notebook&lt;/div&gt;" style="swimlane;fontStyle=1;align=center;verticalAlign=top;childLayout=stackLayout;horizontal=1;startSize=26;horizontalStack=0;resizeParent=1;resizeParentMax=0;resizeLast=0;collapsible=1;marginBottom=0;whiteSpace=wrap;html=1;" parent="gKWf8svU3lvWC4O9m-Wb-16" vertex="1">
          <mxGeometry x="310" y="360" width="340" height="504" as="geometry" />
        </mxCell>
        <mxCell id="VGOBlKjqHN4MHqmhBKWz-95" value="- __address_db_file: str" style="text;strokeColor=none;fillColor=none;align=left;verticalAlign=top;spacingLeft=4;spacingRight=4;overflow=hidden;rotatable=0;points=[[0,0.5],[1,0.5]];portConstraint=eastwest;whiteSpace=wrap;html=1;" parent="VGOBlKjqHN4MHqmhBKWz-49" vertex="1">
          <mxGeometry y="26" width="340" height="26" as="geometry" />
        </mxCell>
        <mxCell id="gKWf8svU3lvWC4O9m-Wb-11" value="- __max_note_id: int" style="text;strokeColor=none;fillColor=none;align=left;verticalAlign=top;spacingLeft=4;spacingRight=4;overflow=hidden;rotatable=0;points=[[0,0.5],[1,0.5]];portConstraint=eastwest;whiteSpace=wrap;html=1;" vertex="1" parent="VGOBlKjqHN4MHqmhBKWz-49">
          <mxGeometry y="52" width="340" height="26" as="geometry" />
        </mxCell>
        <mxCell id="VGOBlKjqHN4MHqmhBKWz-104" value="- data: dict[int, Note]" style="text;strokeColor=none;fillColor=none;align=left;verticalAlign=top;spacingLeft=4;spacingRight=4;overflow=hidden;rotatable=0;points=[[0,0.5],[1,0.5]];portConstraint=eastwest;whiteSpace=wrap;html=1;" parent="VGOBlKjqHN4MHqmhBKWz-49" vertex="1">
          <mxGeometry y="78" width="340" height="26" as="geometry" />
        </mxCell>
        <mxCell id="VGOBlKjqHN4MHqmhBKWz-96" value="&lt;div&gt;+ tags: dict[str, Tag]&lt;br&gt;&lt;/div&gt;" style="text;strokeColor=none;fillColor=none;align=left;verticalAlign=top;spacingLeft=4;spacingRight=4;overflow=hidden;rotatable=0;points=[[0,0.5],[1,0.5]];portConstraint=eastwest;whiteSpace=wrap;html=1;" parent="VGOBlKjqHN4MHqmhBKWz-49" vertex="1">
          <mxGeometry y="104" width="340" height="26" as="geometry" />
        </mxCell>
        <mxCell id="VGOBlKjqHN4MHqmhBKWz-108" value="&lt;div&gt;+ per_page: int&lt;br&gt;&lt;/div&gt;" style="text;strokeColor=none;fillColor=none;align=left;verticalAlign=top;spacingLeft=4;spacingRight=4;overflow=hidden;rotatable=0;points=[[0,0.5],[1,0.5]];portConstraint=eastwest;whiteSpace=wrap;html=1;" parent="VGOBlKjqHN4MHqmhBKWz-49" vertex="1">
          <mxGeometry y="130" width="340" height="26" as="geometry" />
        </mxCell>
        <mxCell id="VGOBlKjqHN4MHqmhBKWz-89" value="" style="line;strokeWidth=1;fillColor=none;align=left;verticalAlign=middle;spacingTop=-1;spacingLeft=3;spacingRight=3;rotatable=0;labelPosition=right;points=[];portConstraint=eastwest;strokeColor=inherit;" parent="VGOBlKjqHN4MHqmhBKWz-49" vertex="1">
          <mxGeometry y="156" width="340" height="10" as="geometry" />
        </mxCell>
        <mxCell id="VGOBlKjqHN4MHqmhBKWz-87" value="- __paginate(per_page: int): dict[Note] | None" style="text;strokeColor=none;fillColor=none;align=left;verticalAlign=top;spacingLeft=4;spacingRight=4;overflow=hidden;rotatable=0;points=[[0,0.5],[1,0.5]];portConstraint=eastwest;whiteSpace=wrap;html=1;" parent="VGOBlKjqHN4MHqmhBKWz-49" vertex="1">
          <mxGeometry y="166" width="340" height="26" as="geometry" />
        </mxCell>
        <mxCell id="VGOBlKjqHN4MHqmhBKWz-106" value="+ add_note(note: Note): None | bool" style="text;strokeColor=none;fillColor=none;align=left;verticalAlign=top;spacingLeft=4;spacingRight=4;overflow=hidden;rotatable=0;points=[[0,0.5],[1,0.5]];portConstraint=eastwest;whiteSpace=wrap;html=1;" parent="VGOBlKjqHN4MHqmhBKWz-49" vertex="1">
          <mxGeometry y="192" width="340" height="26" as="geometry" />
        </mxCell>
        <mxCell id="VGOBlKjqHN4MHqmhBKWz-88" value="+ del_note(id: int): None | bool" style="text;strokeColor=none;fillColor=none;align=left;verticalAlign=top;spacingLeft=4;spacingRight=4;overflow=hidden;rotatable=0;points=[[0,0.5],[1,0.5]];portConstraint=eastwest;whiteSpace=wrap;html=1;" parent="VGOBlKjqHN4MHqmhBKWz-49" vertex="1">
          <mxGeometry y="218" width="340" height="26" as="geometry" />
        </mxCell>
        <mxCell id="VGOBlKjqHN4MHqmhBKWz-92" value="+ overwrite_note(id: int, note: Note): None | bool" style="text;strokeColor=none;fillColor=none;align=left;verticalAlign=top;spacingLeft=4;spacingRight=4;overflow=hidden;rotatable=0;points=[[0,0.5],[1,0.5]];portConstraint=eastwest;whiteSpace=wrap;html=1;" parent="VGOBlKjqHN4MHqmhBKWz-49" vertex="1">
          <mxGeometry y="244" width="340" height="26" as="geometry" />
        </mxCell>
        <mxCell id="VGOBlKjqHN4MHqmhBKWz-93" value="+ get_all(per_page: int | None): dict[Note] | None" style="text;strokeColor=none;fillColor=none;align=left;verticalAlign=top;spacingLeft=4;spacingRight=4;overflow=hidden;rotatable=0;points=[[0,0.5],[1,0.5]];portConstraint=eastwest;whiteSpace=wrap;html=1;" parent="VGOBlKjqHN4MHqmhBKWz-49" vertex="1">
          <mxGeometry y="270" width="340" height="26" as="geometry" />
        </mxCell>
        <mxCell id="VGOBlKjqHN4MHqmhBKWz-94" value="+ search(text: str): dict[Note] | None" style="text;strokeColor=none;fillColor=none;align=left;verticalAlign=top;spacingLeft=4;spacingRight=4;overflow=hidden;rotatable=0;points=[[0,0.5],[1,0.5]];portConstraint=eastwest;whiteSpace=wrap;html=1;" parent="VGOBlKjqHN4MHqmhBKWz-49" vertex="1">
          <mxGeometry y="296" width="340" height="26" as="geometry" />
        </mxCell>
        <mxCell id="VGOBlKjqHN4MHqmhBKWz-52" value="+ get_by_tag(tag: Tag, sorted: bool=False): dict[Note] | None" style="text;strokeColor=none;fillColor=none;align=left;verticalAlign=top;spacingLeft=4;spacingRight=4;overflow=hidden;rotatable=0;points=[[0,0.5],[1,0.5]];portConstraint=eastwest;whiteSpace=wrap;html=1;" parent="VGOBlKjqHN4MHqmhBKWz-49" vertex="1">
          <mxGeometry y="322" width="340" height="26" as="geometry" />
        </mxCell>
        <mxCell id="VGOBlKjqHN4MHqmhBKWz-109" value="+ add_tag(tag: Tag, note_id: int): bool | None" style="text;strokeColor=none;fillColor=none;align=left;verticalAlign=top;spacingLeft=4;spacingRight=4;overflow=hidden;rotatable=0;points=[[0,0.5],[1,0.5]];portConstraint=eastwest;whiteSpace=wrap;html=1;" parent="VGOBlKjqHN4MHqmhBKWz-49" vertex="1">
          <mxGeometry y="348" width="340" height="26" as="geometry" />
        </mxCell>
        <mxCell id="VGOBlKjqHN4MHqmhBKWz-105" value="+ del_tag(tag: Tag): bool | None" style="text;strokeColor=none;fillColor=none;align=left;verticalAlign=top;spacingLeft=4;spacingRight=4;overflow=hidden;rotatable=0;points=[[0,0.5],[1,0.5]];portConstraint=eastwest;whiteSpace=wrap;html=1;" parent="VGOBlKjqHN4MHqmhBKWz-49" vertex="1">
          <mxGeometry y="374" width="340" height="26" as="geometry" />
        </mxCell>
        <mxCell id="VGOBlKjqHN4MHqmhBKWz-99" value="+ untag_note(tag: Tag, note_id: int): bool | None" style="text;strokeColor=none;fillColor=none;align=left;verticalAlign=top;spacingLeft=4;spacingRight=4;overflow=hidden;rotatable=0;points=[[0,0.5],[1,0.5]];portConstraint=eastwest;whiteSpace=wrap;html=1;" parent="VGOBlKjqHN4MHqmhBKWz-49" vertex="1">
          <mxGeometry y="400" width="340" height="26" as="geometry" />
        </mxCell>
        <mxCell id="VGOBlKjqHN4MHqmhBKWz-110" value="+ clear_note_tags(note_id: int): bool | None" style="text;strokeColor=none;fillColor=none;align=left;verticalAlign=top;spacingLeft=4;spacingRight=4;overflow=hidden;rotatable=0;points=[[0,0.5],[1,0.5]];portConstraint=eastwest;whiteSpace=wrap;html=1;" parent="VGOBlKjqHN4MHqmhBKWz-49" vertex="1">
          <mxGeometry y="426" width="340" height="26" as="geometry" />
        </mxCell>
        <mxCell id="VGOBlKjqHN4MHqmhBKWz-102" value="+ save_to_file(file_name: str): bool | None" style="text;strokeColor=none;fillColor=none;align=left;verticalAlign=top;spacingLeft=4;spacingRight=4;overflow=hidden;rotatable=0;points=[[0,0.5],[1,0.5]];portConstraint=eastwest;whiteSpace=wrap;html=1;" parent="VGOBlKjqHN4MHqmhBKWz-49" vertex="1">
          <mxGeometry y="452" width="340" height="26" as="geometry" />
        </mxCell>
        <mxCell id="VGOBlKjqHN4MHqmhBKWz-103" value="+ load_from_file(file_name: str): bool | None" style="text;strokeColor=none;fillColor=none;align=left;verticalAlign=top;spacingLeft=4;spacingRight=4;overflow=hidden;rotatable=0;points=[[0,0.5],[1,0.5]];portConstraint=eastwest;whiteSpace=wrap;html=1;" parent="VGOBlKjqHN4MHqmhBKWz-49" vertex="1">
          <mxGeometry y="478" width="340" height="26" as="geometry" />
        </mxCell>
        <mxCell id="VGOBlKjqHN4MHqmhBKWz-53" value="Tag" style="swimlane;fontStyle=1;align=center;verticalAlign=top;childLayout=stackLayout;horizontal=1;startSize=26;horizontalStack=0;resizeParent=1;resizeParentMax=0;resizeLast=0;collapsible=1;marginBottom=0;whiteSpace=wrap;html=1;" parent="gKWf8svU3lvWC4O9m-Wb-16" vertex="1">
          <mxGeometry x="40" y="210" width="240" height="88" as="geometry" />
        </mxCell>
        <mxCell id="VGOBlKjqHN4MHqmhBKWz-98" value="&lt;div&gt;+ notes: list[Note] | None&lt;br&gt;&lt;/div&gt;" style="text;strokeColor=none;fillColor=none;align=left;verticalAlign=top;spacingLeft=4;spacingRight=4;overflow=hidden;rotatable=0;points=[[0,0.5],[1,0.5]];portConstraint=eastwest;whiteSpace=wrap;html=1;" parent="VGOBlKjqHN4MHqmhBKWz-53" vertex="1">
          <mxGeometry y="26" width="240" height="26" as="geometry" />
        </mxCell>
        <mxCell id="VGOBlKjqHN4MHqmhBKWz-101" value="" style="line;strokeWidth=1;fillColor=none;align=left;verticalAlign=middle;spacingTop=-1;spacingLeft=3;spacingRight=3;rotatable=0;labelPosition=right;points=[];portConstraint=eastwest;strokeColor=inherit;" parent="VGOBlKjqHN4MHqmhBKWz-53" vertex="1">
          <mxGeometry y="52" width="240" height="10" as="geometry" />
        </mxCell>
        <mxCell id="VGOBlKjqHN4MHqmhBKWz-100" value="+ add_note(note: Note): bool | None" style="text;strokeColor=none;fillColor=none;align=left;verticalAlign=top;spacingLeft=4;spacingRight=4;overflow=hidden;rotatable=0;points=[[0,0.5],[1,0.5]];portConstraint=eastwest;whiteSpace=wrap;html=1;" parent="VGOBlKjqHN4MHqmhBKWz-53" vertex="1">
          <mxGeometry y="62" width="240" height="26" as="geometry" />
        </mxCell>
        <mxCell id="VGOBlKjqHN4MHqmhBKWz-57" value="Field" style="swimlane;fontStyle=1;align=center;verticalAlign=top;childLayout=stackLayout;horizontal=1;startSize=26;horizontalStack=0;resizeParent=1;resizeParentMax=0;resizeLast=0;collapsible=1;marginBottom=0;whiteSpace=wrap;html=1;" parent="gKWf8svU3lvWC4O9m-Wb-16" vertex="1">
          <mxGeometry x="40" y="80" width="160" height="52" as="geometry" />
        </mxCell>
        <mxCell id="VGOBlKjqHN4MHqmhBKWz-58" value="+ value: str | None" style="text;strokeColor=none;fillColor=none;align=left;verticalAlign=top;spacingLeft=4;spacingRight=4;overflow=hidden;rotatable=0;points=[[0,0.5],[1,0.5]];portConstraint=eastwest;whiteSpace=wrap;html=1;" parent="VGOBlKjqHN4MHqmhBKWz-57" vertex="1">
          <mxGeometry y="26" width="160" height="26" as="geometry" />
        </mxCell>
        <mxCell id="VGOBlKjqHN4MHqmhBKWz-61" value="Title" style="swimlane;fontStyle=1;align=center;verticalAlign=top;childLayout=stackLayout;horizontal=1;startSize=26;horizontalStack=0;resizeParent=1;resizeParentMax=0;resizeLast=0;collapsible=1;marginBottom=0;whiteSpace=wrap;html=1;" parent="gKWf8svU3lvWC4O9m-Wb-16" vertex="1">
          <mxGeometry x="520" y="210" width="160" height="34" as="geometry" />
        </mxCell>
        <mxCell id="VGOBlKjqHN4MHqmhBKWz-65" value="Extends" style="endArrow=block;endSize=16;endFill=0;html=1;rounded=0;exitX=0.329;exitY=0.011;exitDx=0;exitDy=0;exitPerimeter=0;edgeStyle=orthogonalEdgeStyle;" parent="gKWf8svU3lvWC4O9m-Wb-16" source="VGOBlKjqHN4MHqmhBKWz-53" target="VGOBlKjqHN4MHqmhBKWz-57" edge="1">
          <mxGeometry width="160" relative="1" as="geometry">
            <mxPoint x="500" y="470" as="sourcePoint" />
            <mxPoint x="660" y="470" as="targetPoint" />
          </mxGeometry>
        </mxCell>
        <mxCell id="VGOBlKjqHN4MHqmhBKWz-66" value="Extends" style="endArrow=block;endSize=16;endFill=0;html=1;rounded=0;orthogonal=0;noJump=0;bendable=1;edgeStyle=orthogonalEdgeStyle;" parent="gKWf8svU3lvWC4O9m-Wb-16" source="VGOBlKjqHN4MHqmhBKWz-61" target="VGOBlKjqHN4MHqmhBKWz-57" edge="1">
          <mxGeometry width="160" relative="1" as="geometry">
            <mxPoint x="370" y="410" as="sourcePoint" />
            <mxPoint x="250" y="290" as="targetPoint" />
            <Array as="points">
              <mxPoint x="600" y="106" />
            </Array>
          </mxGeometry>
        </mxCell>
        <mxCell id="VGOBlKjqHN4MHqmhBKWz-67" value="&lt;div&gt;Content&lt;/div&gt;" style="swimlane;fontStyle=1;align=center;verticalAlign=top;childLayout=stackLayout;horizontal=1;startSize=26;horizontalStack=0;resizeParent=1;resizeParentMax=0;resizeLast=0;collapsible=1;marginBottom=0;whiteSpace=wrap;html=1;" parent="gKWf8svU3lvWC4O9m-Wb-16" vertex="1">
          <mxGeometry x="320" y="210" width="160" height="34" as="geometry" />
        </mxCell>
        <mxCell id="VGOBlKjqHN4MHqmhBKWz-68" value="Extends" style="endArrow=block;endSize=16;endFill=0;html=1;rounded=0;exitX=0.5;exitY=0;exitDx=0;exitDy=0;entryX=0.75;entryY=1.038;entryDx=0;entryDy=0;entryPerimeter=0;edgeStyle=orthogonalEdgeStyle;" parent="gKWf8svU3lvWC4O9m-Wb-16" source="VGOBlKjqHN4MHqmhBKWz-67" target="VGOBlKjqHN4MHqmhBKWz-58" edge="1">
          <mxGeometry width="160" relative="1" as="geometry">
            <mxPoint x="780" y="168" as="sourcePoint" />
            <mxPoint x="200" y="170" as="targetPoint" />
          </mxGeometry>
        </mxCell>
        <mxCell id="gKWf8svU3lvWC4O9m-Wb-6" value="" style="endArrow=diamondThin;endFill=1;endSize=24;html=1;rounded=0;entryX=0;entryY=0.5;entryDx=0;entryDy=0;exitX=0.5;exitY=1;exitDx=0;exitDy=0;edgeStyle=orthogonalEdgeStyle;" edge="1" parent="gKWf8svU3lvWC4O9m-Wb-16" source="VGOBlKjqHN4MHqmhBKWz-61" target="VGOBlKjqHN4MHqmhBKWz-70">
          <mxGeometry width="160" relative="1" as="geometry">
            <mxPoint x="150" y="460" as="sourcePoint" />
            <mxPoint x="310" y="460" as="targetPoint" />
          </mxGeometry>
        </mxCell>
        <mxCell id="gKWf8svU3lvWC4O9m-Wb-7" value="" style="endArrow=diamondThin;endFill=1;endSize=24;html=1;rounded=0;entryX=0;entryY=0.5;entryDx=0;entryDy=0;exitX=0.5;exitY=1;exitDx=0;exitDy=0;edgeStyle=orthogonalEdgeStyle;" edge="1" parent="gKWf8svU3lvWC4O9m-Wb-16" source="VGOBlKjqHN4MHqmhBKWz-67" target="VGOBlKjqHN4MHqmhBKWz-71">
          <mxGeometry width="160" relative="1" as="geometry">
            <mxPoint x="610" y="254" as="sourcePoint" />
            <mxPoint x="730" y="285" as="targetPoint" />
          </mxGeometry>
        </mxCell>
        <mxCell id="gKWf8svU3lvWC4O9m-Wb-10" value="" style="endArrow=diamondThin;endFill=1;endSize=24;html=1;rounded=0;edgeStyle=orthogonalEdgeStyle;entryX=1;entryY=0.308;entryDx=0;entryDy=0;entryPerimeter=0;" edge="1" parent="gKWf8svU3lvWC4O9m-Wb-16" source="VGOBlKjqHN4MHqmhBKWz-45" target="VGOBlKjqHN4MHqmhBKWz-104">
          <mxGeometry width="160" relative="1" as="geometry">
            <mxPoint x="410" y="254" as="sourcePoint" />
            <mxPoint x="730" y="311" as="targetPoint" />
            <Array as="points" />
          </mxGeometry>
        </mxCell>
        <mxCell id="gKWf8svU3lvWC4O9m-Wb-12" value="&lt;div&gt;UserDict&lt;/div&gt;" style="swimlane;fontStyle=1;align=center;verticalAlign=top;childLayout=stackLayout;horizontal=1;startSize=26;horizontalStack=0;resizeParent=1;resizeParentMax=0;resizeLast=0;collapsible=1;marginBottom=0;whiteSpace=wrap;html=1;" vertex="1" parent="gKWf8svU3lvWC4O9m-Wb-16">
          <mxGeometry x="420" y="30" width="160" height="34" as="geometry" />
        </mxCell>
        <mxCell id="gKWf8svU3lvWC4O9m-Wb-14" value="Extends" style="endArrow=block;endSize=16;endFill=0;html=1;rounded=0;orthogonal=0;noJump=0;bendable=1;" edge="1" parent="gKWf8svU3lvWC4O9m-Wb-16" target="gKWf8svU3lvWC4O9m-Wb-12">
          <mxGeometry x="0.2838" width="160" relative="1" as="geometry">
            <mxPoint x="500" y="360" as="sourcePoint" />
            <mxPoint x="773" y="64" as="targetPoint" />
            <mxPoint as="offset" />
          </mxGeometry>
        </mxCell>
        <mxCell id="gKWf8svU3lvWC4O9m-Wb-15" value="" style="endArrow=diamondThin;endFill=1;endSize=24;html=1;rounded=0;edgeStyle=orthogonalEdgeStyle;entryX=0;entryY=0.5;entryDx=0;entryDy=0;" edge="1" parent="gKWf8svU3lvWC4O9m-Wb-16" source="VGOBlKjqHN4MHqmhBKWz-53" target="VGOBlKjqHN4MHqmhBKWz-96">
          <mxGeometry width="160" relative="1" as="geometry">
            <mxPoint x="810" y="324" as="sourcePoint" />
            <mxPoint x="660" y="456" as="targetPoint" />
            <Array as="points" />
          </mxGeometry>
        </mxCell>
      </root>
    </mxGraphModel>
  </diagram>
</mxfile>
